<?xml version="1.0" encoding="utf-8"?>
<!DOCTYPE svg PUBLIC "-//W3C//DTD SVG 20010904//EN" "http://www.w3.org/TR/2001/REC-SVG-20010904/DTD/svg10.dtd">
<svg version="1.0" xmlns="http://www.w3.org/2000/svg" viewBox="0 0 1090 978" preserveAspectRatio="xMidYMid meet">
  <g fill="#10261BFF">
    <path
      d="M 359.50 957.96 C 218.99 957.46 207.98 957.30 201.08 955.63 C 190.84 953.17 176.50 948.31 170.50 945.28 C 167.75 943.88 163.70 941.83 161.50 940.71 C 123.36 921.32 94.39 882.06 85.32 837.46 C 83.58 828.90 83.50 813.83 83.50 498.50 C 83.50 185.37 83.59 168.04 85.29 159.50 C 91.78 126.87 104.85 102.06 127.45 79.45 C 149.77 57.12 175.02 43.68 206.54 37.34 C 215.04 35.63 232.35 35.52 544.00 35.21 C 771.48 34.99 876.35 35.22 885.00 35.96 C 905.98 37.76 922.05 42.40 941.06 52.15 C 985.46 74.95 1015.50 118.96 1020.95 169.21 C 1021.66 175.80 1022.00 281.81 1022.00 499.41 C 1022.00 851.85 1022.35 831.46 1015.92 853.09 C 1014.23 858.81 1012.31 863.82 1011.67 864.23 C 1011.03 864.63 1010.83 864.98 1011.24 864.98 C 1012.40 865.01 1007.59 875.19 1001.64 885.30 C 988.16 908.21 967.88 927.50 942.50 941.57 C 938.65 943.71 935.27 945.42 935.00 945.39 C 934.73 945.36 932.19 946.35 929.37 947.60 C 923.62 950.14 913.97 953.17 903.50 955.73 C 897.06 957.30 880.95 957.48 703.50 957.97 C 597.35 958.26 442.55 958.26 359.50 957.96ZM 279.00 847.50 L 279.00 831.00 L 246.51 831.00 L 214.03 831.00 L 213.76 797.75 L 213.50 764.50 L 197.00 764.50 L 180.50 764.50 L 180.24 814.25 L 179.98 864.00 L 229.49 864.00 L 279.00 864.00 L 279.00 847.50ZM 922.00 814.00 L 922.00 764.00 L 905.50 764.00 L 889.00 764.00 L 889.00 797.50 L 889.00 831.00 L 856.50 831.00 L 824.00 831.00 L 824.00 847.50 L 824.00 864.00 L 873.00 864.00 L 922.00 864.00 L 922.00 814.00ZM 457.18 663.75 C 457.28 616.31 457.35 576.70 457.35 575.72 C 457.34 574.74 457.65 574.07 458.04 574.22 C 459.36 574.74 505.63 620.28 570.85 685.25 L 635.85 750.00 L 719.93 750.00 L 804.01 750.00 L 803.76 661.25 L 803.50 572.50 L 631.13 572.25 L 458.76 571.99 L 503.13 549.65 C 527.53 537.36 597.67 502.06 659.00 471.21 C 720.33 440.35 777.92 411.29 787.00 406.61 L 803.50 398.12 L 803.76 313.05 L 804.01 227.99 L 717.81 228.24 L 631.60 228.50 L 607.54 276.00 C 571.31 347.52 538.01 413.09 505.46 477.00 C 489.35 508.62 472.21 542.49 467.35 552.25 C 462.50 562.01 458.22 570.00 457.84 570.00 C 457.46 570.00 457.12 493.16 457.07 399.25 L 456.99 228.50 L 368.00 228.24 L 279.00 227.99 L 279.15 311.74 L 279.30 395.50 L 367.90 483.50 L 456.50 571.50 L 367.75 571.76 L 279.00 572.01 L 279.00 660.34 C 279.00 708.92 279.30 748.97 279.67 749.33 C 280.03 749.70 320.08 750.00 368.67 750.00 L 457.00 750.00 L 457.18 663.75ZM 572.50 660.50 L 502.50 591.08 L 572.75 591.04 L 643.00 591.00 L 643.00 660.50 C 643.00 698.73 642.89 729.98 642.75 729.96 C 642.61 729.93 611.00 698.68 572.50 660.50ZM 693.13 687.14 L 671.76 665.00 L 684.37 665.00 L 696.97 665.00 L 697.23 638.25 L 697.50 611.50 L 714.50 611.50 L 731.50 611.50 L 731.77 638.22 L 732.03 664.94 L 744.49 665.22 L 756.95 665.50 L 735.72 687.39 L 714.50 709.29 L 693.13 687.14ZM 502.26 525.32 C 508.65 511.97 592.44 346.95 630.13 273.50 L 642.95 248.50 L 642.98 317.74 L 643.00 386.99 L 713.25 387.24 L 783.50 387.50 L 730.50 414.15 C 701.35 428.81 637.73 460.87 589.11 485.40 C 540.50 509.93 500.57 530.00 500.38 530.00 C 500.18 530.00 501.03 527.90 502.26 525.32ZM 368.78 458.05 C 330.44 419.85 299.20 388.47 299.37 388.30 C 299.53 388.14 330.90 387.98 369.08 387.96 L 438.50 387.91 L 438.76 423.03 C 438.91 442.34 438.91 473.75 438.76 492.82 L 438.50 527.50 L 368.78 458.05ZM 909.75 234.07 L 922.00 234.00 L 922.00 183.99 L 922.00 133.98 L 872.75 134.24 L 823.50 134.50 L 823.50 151.00 L 823.50 167.50 L 856.25 167.76 L 889.00 168.03 L 889.00 200.46 C 889.00 230.05 889.15 232.98 890.71 233.86 C 891.66 234.39 893.57 234.67 894.96 234.48 C 896.36 234.29 903.01 234.11 909.75 234.07ZM 213.00 202.00 C 213.00 184.40 212.89 169.66 212.75 169.25 C 212.61 168.84 227.35 168.28 245.50 168.00 L 278.50 167.50 L 278.77 150.74 L 279.05 133.98 L 229.77 134.24 L 180.50 134.50 L 180.24 183.00 C 180.10 209.68 180.19 232.06 180.46 232.75 C 180.81 233.68 185.07 234.00 196.97 234.00 L 213.00 234.00 L 213.00 202.00Z" />
  </g>
  <g fill="#D1F5E6FF">
    <path
      d="M 459.00 570.44 C 459.00 569.81 495.99 496.79 552.93 385.00 C 562.32 366.57 584.06 323.72 601.25 289.76 L 632.50 228.02 L 717.75 228.01 L 803.00 228.00 L 803.00 312.92 L 803.00 397.83 L 750.75 424.29 C 627.77 486.56 459.00 571.10 459.00 570.44ZM 565.38 498.13 C 601.19 480.05 665.49 447.62 708.25 426.06 L 786.00 386.87 L 786.00 316.55 C 786.00 247.92 785.95 246.22 784.07 245.73 C 781.15 244.96 682.08 244.87 661.26 245.61 L 643.03 246.26 L 614.86 301.88 C 599.37 332.47 583.69 363.35 580.00 370.50 C 576.32 377.65 563.73 402.40 552.02 425.50 C 540.31 448.60 524.01 480.71 515.80 496.87 C 500.58 526.78 498.59 531.00 499.65 531.00 C 499.98 531.00 529.56 516.21 565.38 498.13Z" />
  </g>
  <g fill="#D1F5E6FF">
    <path
      d="M 547.00 660.96 L 458.50 573.02 L 630.75 573.01 L 803.00 573.00 L 803.00 661.00 L 803.00 749.00 L 719.25 748.95 L 635.50 748.89 L 547.00 660.96ZM 785.50 661.00 L 785.50 590.50 L 643.75 590.25 C 565.79 590.11 502.00 590.31 502.00 590.69 C 502.00 591.07 533.84 623.00 572.75 661.64 L 643.50 731.90 L 714.50 731.70 L 785.50 731.50 L 785.50 661.00Z" />
  </g>
  <g fill="#D1F5E6FF">
    <path
      d="M 368.25 482.84 L 280.00 394.72 L 280.00 311.86 L 280.00 229.00 L 368.50 229.00 L 457.00 229.00 L 457.00 400.00 C 457.00 494.05 456.89 570.99 456.75 570.98 C 456.61 570.97 416.79 531.31 368.25 482.84ZM 439.24 387.59 L 438.99 247.19 L 429.74 246.61 C 422.02 246.13 333.07 246.29 305.25 246.84 L 297.00 247.00 L 297.00 317.36 L 297.00 387.72 L 367.54 457.86 C 406.33 496.44 438.39 528.00 438.79 528.00 C 439.18 528.00 439.38 464.82 439.24 387.59Z" />
  </g>
  <g fill="#7AC39FFF">
    <path
      d="M 280.00 661.00 L 280.00 573.00 L 368.50 573.00 L 457.00 573.00 L 457.00 661.00 L 457.00 749.00 L 368.50 749.00 L 280.00 749.00 L 280.00 661.00Z" />
  </g>
  <g fill="#7AC39FFF">
    <path
      d="M 640.93 729.26 L 638.50 726.50 L 641.26 728.94 L 644.03 731.37 L 643.76 660.68 L 643.50 589.99 L 714.50 590.24 L 785.50 590.50 L 785.50 661.00 L 785.50 731.50 L 714.43 731.76 L 643.36 732.01 L 640.93 729.26ZM 757.30 665.36 C 757.96 664.24 755.79 664.00 745.07 664.00 L 732.03 664.00 L 731.77 637.75 L 731.50 611.50 L 714.25 611.23 L 697.00 610.95 L 697.00 637.48 L 697.00 664.00 L 684.50 664.00 C 677.62 664.00 672.00 664.40 672.00 664.88 C 672.00 665.36 681.56 675.72 693.25 687.89 L 714.50 710.02 L 735.50 688.37 C 747.05 676.46 756.86 666.11 757.30 665.36Z" />
  </g>
  <g fill="#7AC39FFF">
    <path
      d="M 346.25 436.75 L 297.00 387.49 L 297.00 317.25 L 297.00 247.00 L 305.25 246.84 C 333.08 246.29 422.02 246.13 429.75 246.61 L 439.00 247.19 L 439.00 317.09 L 439.00 387.00 L 368.25 387.00 L 297.51 387.00 L 347.00 436.50 C 374.22 463.73 396.27 486.00 395.99 486.00 C 395.72 486.00 373.33 463.84 346.25 436.75Z" />
  </g>
  <g fill="#7AC39FFF">
    <path
      d="M 784.40 387.15 C 784.94 386.29 767.64 386.00 714.56 386.00 L 644.00 386.00 L 644.00 316.44 C 644.00 261.08 643.74 247.03 642.75 247.59 C 641.83 248.11 641.84 247.93 642.80 246.90 C 643.88 245.73 655.49 245.46 712.80 245.27 C 750.58 245.15 782.51 245.31 783.75 245.64 L 786.00 246.23 L 786.00 316.56 C 786.00 368.64 785.70 387.07 784.85 387.60 C 784.13 388.04 783.96 387.87 784.40 387.15Z" />
  </g>
  <g fill="#D1F5E6FF">
    <path
      d="M 890.00 200.00 L 890.00 167.00 L 857.00 167.00 L 824.00 167.00 L 824.00 151.00 L 824.00 135.00 L 873.00 135.00 L 922.00 135.00 L 922.00 184.00 L 922.00 233.00 L 906.00 233.00 L 890.00 233.00 L 890.00 200.00Z" />
  </g>
  <g fill="#D1F5E6FF">
    <path
      d="M 181.00 184.00 L 181.00 135.00 L 230.00 135.00 L 279.00 135.00 L 279.00 151.00 L 279.00 167.00 L 246.00 167.00 L 213.00 167.00 L 213.00 200.00 L 213.00 233.00 L 197.00 233.00 L 181.00 233.00 L 181.00 184.00Z" />
  </g>
  <g fill="#D1F5E6FF">
    <path
      d="M 181.00 814.25 L 181.00 765.00 L 197.00 765.00 L 213.00 765.00 L 213.00 798.00 L 213.00 831.00 L 245.50 831.00 L 278.00 831.00 L 278.00 847.25 L 278.00 863.50 L 229.50 863.50 L 181.00 863.50 L 181.00 814.25Z" />
  </g>
  <g fill="#D1F5E6FF">
    <path
      d="M 824.34 862.46 C 824.12 861.88 824.07 854.68 824.22 846.46 L 824.50 831.50 L 857.25 831.24 L 890.00 830.97 L 890.00 797.99 L 890.00 765.00 L 906.12 765.00 L 922.23 765.00 L 921.63 767.25 C 921.30 768.49 921.02 790.65 921.01 816.50 L 921.00 863.50 L 872.87 863.50 C 840.36 863.50 824.62 863.16 824.34 862.46Z" />
  </g>
  <g fill="#5D806FFF">
    <path
      d="M 279.67 749.33 C 279.30 748.97 279.00 708.92 279.00 660.33 L 279.00 572.00 L 368.56 572.00 C 436.00 572.00 457.94 571.71 457.40 570.85 C 456.96 570.13 457.13 569.96 457.85 570.40 C 458.48 570.80 459.00 571.65 459.00 572.30 C 459.00 572.95 466.09 580.68 474.75 589.47 L 490.50 605.47 L 473.93 589.24 L 457.36 573.00 L 368.68 573.00 L 280.00 573.00 L 280.00 660.99 L 280.00 748.99 L 368.75 749.25 L 457.50 749.51 L 368.92 749.76 C 320.20 749.89 280.03 749.70 279.67 749.33Z" />
  </g>
  <g fill="#7AC39FFF">
    <path
      d="M 544.75 572.25 C 592.19 572.11 669.81 572.11 717.25 572.25 C 764.69 572.39 725.88 572.51 631.00 572.51 C 536.12 572.51 497.31 572.39 544.75 572.25Z" />
  </g>
  <g fill="#5D806FFF">
    <path
      d="M 722.24 749.25 L 802.99 748.99 L 803.25 660.74 L 803.51 572.50 L 803.76 661.25 L 804.00 750.00 L 722.75 749.76 L 641.50 749.51 L 722.24 749.25Z" />
  </g>
  <g fill="#5D806FFF">
    <path
      d="M 713.26 387.24 L 643.03 386.99 L 642.76 317.40 C 642.62 279.12 642.84 247.60 643.25 247.35 C 643.66 247.09 644.00 278.18 644.00 316.43 L 644.00 385.99 L 714.75 386.24 C 753.66 386.38 785.05 386.73 784.50 387.00 C 783.95 387.27 751.89 387.38 713.26 387.24Z" />
  </g>
</svg>