<svg xmlns="http://www.w3.org/2000/svg" version="1.1" xmlns:xlink="http://www.w3.org/1999/xlink" xmlns:svgjs="http://svgjs.com/svgjs" width="447" height="409"><svg xmlns="http://www.w3.org/2000/svg" xmlns:xlink="http://www.w3.org/1999/xlink" viewBox="0 0 447 409"><defs><style>.cls-1{fill:#e6e6e5;}.cls-2{fill:#020202;opacity:0.1;}.cls-2,.cls-3{isolation:isolate;}.cls-3,.cls-7{fill:#fff;}.cls-3{opacity:0.2;}.cls-4{fill:#f3f3f3;}.cls-5{fill:url(#linear-gradient);}.cls-6{fill:url(#linear-gradient-2);}.cls-7{stroke:#1a1528;stroke-linejoin:round;stroke-width:22px;}.cls-8{fill:#f37a7d;}.cls-9{fill:#ee4847;}.cls-10{fill:#b22b2d;}.cls-11{fill:#f04d4d;}.cls-12{fill:#d14a48;}</style><linearGradient id="SvgjsLinearGradient1002" x1="275.29" y1="212.88" x2="354.05" y2="134.13" gradientTransform="matrix(1, 0, 0, -1, 0, 422)" gradientUnits="userSpaceOnUse"><stop offset="0" stop-color="#020202" stop-opacity="0.1" style="--darkreader-inline-stopcolor: #020202;" data-darkreader-inline-stopcolor=""></stop><stop offset="1" stop-color="#020202" stop-opacity="0" style="--darkreader-inline-stopcolor: #020202;" data-darkreader-inline-stopcolor=""></stop></linearGradient><linearGradient id="SvgjsLinearGradient1001" x1="59.28" y1="255.07" x2="390.93" y2="100.42" gradientTransform="matrix(1, 0, 0, -1, 0, 422)" gradientUnits="userSpaceOnUse"><stop offset="0" stop-color="#fff" stop-opacity="0.2" style="--darkreader-inline-stopcolor: #181a1b;" data-darkreader-inline-stopcolor=""></stop><stop offset="1" stop-color="#fff" stop-opacity="0" style="--darkreader-inline-stopcolor: #181a1b;" data-darkreader-inline-stopcolor=""></stop></linearGradient></defs><g id="SvgjsG1000" data-name="Layer 2"><path class="cls-1" d="M344.77,123.58A88.33,88.33,0,0,0,325,126,123.44,123.44,0,0,0,89.54,163.92,70.49,70.49,0,0,0,115.38,300H344.77a88.23,88.23,0,1,0,0-176.46Z"></path><path class="cls-2" d="M346,295.63H114a71.49,71.49,0,0,1-64.07-39.91A70.7,70.7,0,0,0,115.38,300H344.77a88.45,88.45,0,0,0,81.81-55.18A89.4,89.4,0,0,1,346,295.63Z"></path><path class="cls-3" d="M344.77,123.58A88.33,88.33,0,0,0,325,126,123.44,123.44,0,0,0,89.54,163.92h0c-26.27,10.59-44.75,35.54-44.75,65.54,1.2-37.89,32.42-66.17,70.59-66.17s69.38,28.28,70.58,66.17a70.65,70.65,0,0,0-70.58-70.58,69.57,69.57,0,0,0-25.06,4.81c8.41-60,59.87-106.28,122.11-106.28A123.44,123.44,0,0,1,323.1,126.58c.3-.07-.3.11,0,0a87.12,87.12,0,0,0-66.56,85.23c1.2-47.61,40.34-83.82,88.23-83.82s87,36.21,88.23,83.82A88.33,88.33,0,0,0,344.77,123.58Z"></path><path class="cls-4" d="M308.77,252.93a105.8,105.8,0,0,0-198.6-37.85,78.54,78.54,0,0,0-21.26-3.27,79.41,79.41,0,1,0,0,158.81H283a61.64,61.64,0,0,0,25.76-117.69Z"></path><path class="cls-2" d="M284.18,366.21H88a80.65,80.65,0,0,1-73.3-46.85,79.66,79.66,0,0,0,74.26,51.26H283a62,62,0,0,0,58-40.4,62.79,62.79,0,0,1-56.82,36Z"></path><path class="cls-3" d="M308.65,252.94c-5.88-52.81-50.66-94.06-105-94.06a106.07,106.07,0,0,0-93.43,56.18,77.37,77.37,0,0,0-21.26-3.25,79.53,79.53,0,0,0-77.82,63.63,80.73,80.73,0,0,1,155.63,0c-5.89-29.06-26.32-51.75-54.52-59.87.49.12-.48-.16,0,0a106.2,106.2,0,0,1,196.4,37.36A60.92,60.92,0,0,0,283,247.1a62,62,0,0,0-61.09,52.66c6.26-27.56,31.37-48.24,61.09-48.24s54.83,20.68,61.09,48.24A61.92,61.92,0,0,0,308.65,252.94Z"></path><path class="cls-5" d="M281.09,192.81v.53c14.89,16.14,25.12,36.61,27.7,59.57A61.88,61.88,0,0,1,344.1,300h.67a87.43,87.43,0,0,0,35.8-7.76Z"></path><path class="cls-6" d="M344.77,123.58A88.33,88.33,0,0,0,325,126,123.44,123.44,0,0,0,89.54,163.92a70.51,70.51,0,0,0-44.41,61.14A79.34,79.34,0,0,0,88.91,370.62H283a61.82,61.82,0,0,0,61.73-61.93,61.16,61.16,0,0,0-.62-8.65h.65a88.23,88.23,0,1,0,0-176.46Z"></path><path class="cls-7" d="M270.23,202.58h0l48.77-22L296.86,169,270.23,180.6h0L296.86,169l-26.63-11.62-1.9.83L248.1,147.58l-26.64-11.66-26.63,11.66,20,8.72-20-8.72L174.6,158.21l-1.91-.83L146.06,169l21.3,9.29L146.06,169,123.93,180.6l48.76,22v-22l24.16-10.49h0L172.7,180.6v22h0l-48.77-22v87.84l97.53,43.95L319,268.44V180.6Zm-72.54-10.82,23.77,10.37Zm23.77,32.78-48.28-21.75h0l48.28,21.76,48.28-21.76h0Z"></path><polygon class="cls-8" points="221.46 181.15 172.7 159.19 194.83 147.58 221.46 159.19 221.46 181.15"></polygon><polygon class="cls-9" points="221.46 312.44 123.93 268.5 123.93 180.62 221.46 224.55 221.46 312.44"></polygon><polygon class="cls-10" points="221.46 312.44 319 268.5 319 180.62 221.46 224.55 221.46 312.44"></polygon><polygon class="cls-11" points="221.46 135.95 194.83 147.58 221.46 159.19 248.1 147.58 221.46 135.95"></polygon><polygon class="cls-11" points="172.7 157.37 146.06 168.99 172.7 180.62 199.33 168.99 172.7 157.37"></polygon><polygon class="cls-12" points="172.7 203.03 221.46 181.05 199.33 168.99 172.7 180.62 172.7 203.03"></polygon><polygon class="cls-12" points="221.46 181.15 270.23 159.19 248.1 147.58 221.46 159.19 221.46 181.15"></polygon><polygon class="cls-8" points="172.7 202.58 123.93 180.62 146.06 168.99 172.7 180.62 172.7 202.58"></polygon><polygon class="cls-8" points="270.23 203 221.46 181.02 243.6 168.96 270.23 180.58 270.23 203"></polygon><polygon class="cls-12" points="270.23 202.58 319 180.62 296.86 168.99 270.23 180.62 270.23 202.58"></polygon><polygon class="cls-11" points="270.23 157.37 243.6 168.99 270.23 180.62 296.86 168.99 270.23 157.37"></polygon><polygon class="cls-12" points="221.46 224.55 270.23 202.58 248.1 190.51 221.46 202.13 221.46 224.55"></polygon><polygon class="cls-8" points="221.46 224.55 172.7 202.58 194.83 190.51 221.46 202.13 221.46 224.55"></polygon><polygon class="cls-11" points="221.46 178.89 194.83 190.51 221.46 202.13 248.1 190.51 221.46 178.89"></polygon></g></svg><style>@media (prefers-color-scheme: light) { :root { filter: contrast(1) brightness(0.9); } }
</style></svg>